<mxfile host="app.diagrams.net" modified="2021-05-13T16:59:43.032Z" agent="5.0 (Windows NT 10.0; Win64; x64) AppleWebKit/537.36 (KHTML, like Gecko) Chrome/89.0.4389.114 Safari/537.36" etag="AS6eD56ULcL2xWrfO8CT" version="14.6.0" type="github">
  <diagram id="7JSvU80t5YNObJaVkvSd" name="Page-1">
    <mxGraphModel dx="868" dy="450" grid="1" gridSize="10" guides="1" tooltips="1" connect="1" arrows="1" fold="1" page="1" pageScale="1" pageWidth="850" pageHeight="1100" math="0" shadow="0">
      <root>
        <mxCell id="0" />
        <mxCell id="1" parent="0" />
        <mxCell id="PhgvJn5Uxzj3nyAtq7cL-1" value="Actor" style="shape=umlActor;verticalLabelPosition=bottom;verticalAlign=top;html=1;outlineConnect=0;" vertex="1" parent="1">
          <mxGeometry x="200" y="170" width="30" height="60" as="geometry" />
        </mxCell>
        <mxCell id="PhgvJn5Uxzj3nyAtq7cL-2" value="Order food using a mobile app" style="ellipse;whiteSpace=wrap;html=1;" vertex="1" parent="1">
          <mxGeometry x="300" y="130" width="90" height="60" as="geometry" />
        </mxCell>
        <mxCell id="PhgvJn5Uxzj3nyAtq7cL-3" value="Receives delivered food" style="ellipse;whiteSpace=wrap;html=1;" vertex="1" parent="1">
          <mxGeometry x="300" y="210" width="90" height="60" as="geometry" />
        </mxCell>
        <mxCell id="PhgvJn5Uxzj3nyAtq7cL-5" value="" style="endArrow=classic;html=1;entryX=0;entryY=0.5;entryDx=0;entryDy=0;" edge="1" parent="1" source="PhgvJn5Uxzj3nyAtq7cL-1" target="PhgvJn5Uxzj3nyAtq7cL-3">
          <mxGeometry width="50" height="50" relative="1" as="geometry">
            <mxPoint x="400" y="250" as="sourcePoint" />
            <mxPoint x="450" y="200" as="targetPoint" />
          </mxGeometry>
        </mxCell>
        <mxCell id="PhgvJn5Uxzj3nyAtq7cL-6" value="" style="endArrow=classic;html=1;entryX=0;entryY=0.5;entryDx=0;entryDy=0;" edge="1" parent="1" source="PhgvJn5Uxzj3nyAtq7cL-1" target="PhgvJn5Uxzj3nyAtq7cL-2">
          <mxGeometry width="50" height="50" relative="1" as="geometry">
            <mxPoint x="400" y="250" as="sourcePoint" />
            <mxPoint x="450" y="200" as="targetPoint" />
          </mxGeometry>
        </mxCell>
      </root>
    </mxGraphModel>
  </diagram>
</mxfile>
